<svg width="32" height="34" viewBox="0 0 32 34" fill="none" xmlns="http://www.w3.org/2000/svg">
<g id="Phosphor icons / BatteryChargingVertical">
<path id="Vector (Stroke)" fill-rule="evenodd" clip-rule="evenodd" d="M11 1.23947C11 0.660605 11.4477 0.191345 12 0.191345H20C20.5523 0.191345 21 0.660605 21 1.23947C21 1.81833 20.5523 2.28759 20 2.28759H12C11.4477 2.28759 11 1.81833 11 1.23947Z" fill="black"/>
<path id="Vector (Stroke)_2" fill-rule="evenodd" clip-rule="evenodd" d="M9 6.48009C8.44772 6.48009 8 6.94935 8 7.52822V27.4425C8 28.0214 8.44772 28.4907 9 28.4907H23C23.5523 28.4907 24 28.0214 24 27.4425V7.52822C24 6.94935 23.5523 6.48009 23 6.48009H9ZM6 7.52822C6 5.79163 7.34315 4.38385 9 4.38385H23C24.6569 4.38385 26 5.79163 26 7.52822V27.4425C26 29.1791 24.6569 30.5869 23 30.5869H9C7.34315 30.5869 6 29.1791 6 27.4425V7.52822Z" fill="black"/>
<path id="Vector (Stroke)_3" fill-rule="evenodd" clip-rule="evenodd" d="M16.3714 11.2716C16.8842 11.4866 17.1336 12.0966 16.9285 12.634L15.477 16.4372H18C18.3318 16.4372 18.642 16.6098 18.8281 16.8978C19.0141 17.1857 19.0517 17.5517 18.9285 17.8746L16.9285 23.1152C16.7234 23.6527 16.1414 23.9141 15.6286 23.6991C15.1158 23.4841 14.8664 22.8742 15.0715 22.3367L16.523 18.5335H14C13.6682 18.5335 13.358 18.361 13.1719 18.073C12.9859 17.785 12.9483 17.419 13.0715 17.0961L15.0715 11.8555C15.2766 11.318 15.8586 11.0566 16.3714 11.2716Z" fill="black"/>
</g>
</svg>
