<svg width="27" height="33" viewBox="0 0 27 33" fill="none" xmlns="http://www.w3.org/2000/svg">
<g id="Phosphor icons / Lightning">
<path id="Vector (Stroke)" fill-rule="evenodd" clip-rule="evenodd" d="M17.2603 1.28698C17.5958 1.49424 17.7764 1.94436 17.7024 2.38946L16.1556 11.6965L22.2338 14.4394C22.4976 14.5584 22.6946 14.828 22.7589 15.1581C22.8233 15.4881 22.7466 15.8351 22.5543 16.0829L10.7418 31.3134C10.4845 31.6453 10.0753 31.7312 9.73976 31.524C9.40418 31.3167 9.22367 30.8666 9.29765 30.4215L10.8444 21.1145L4.76625 18.3716C4.50247 18.2525 4.30546 17.9829 4.24109 17.6529C4.17671 17.3228 4.25346 16.9759 4.44569 16.7281L16.2582 1.49753C16.5156 1.16569 16.9247 1.07973 17.2603 1.28698ZM6.54044 17.0034L12.1088 19.5162C12.4961 19.691 12.721 20.178 12.6399 20.6661L11.5349 27.3147L20.4596 15.8076L14.8913 13.2947C14.5039 13.1199 14.279 12.633 14.3601 12.1449L15.4651 5.49631L6.54044 17.0034Z" fill="black"/>
</g>
</svg>
