<svg width="32" height="33" viewBox="0 0 32 33" fill="none" xmlns="http://www.w3.org/2000/svg">
<g id="Phosphor icons / Browsers">
<path id="Vector (Stroke)" fill-rule="evenodd" clip-rule="evenodd" d="M3 11.6843C3 10.5797 3.89543 9.68427 5 9.68427H23C24.1046 9.68427 25 10.5797 25 11.6843V25.6843C25 26.7888 24.1046 27.6843 23 27.6843H5C3.89543 27.6843 3 26.7888 3 25.6843V11.6843ZM23 11.6843H5V25.6843H23V11.6843Z" fill="black"/>
<path id="Vector (Stroke)_2" fill-rule="evenodd" clip-rule="evenodd" d="M7.58579 6.27005C7.96086 5.89498 8.46957 5.68427 9 5.68427H27C27.5304 5.68427 28.0391 5.89498 28.4142 6.27005C28.7893 6.64513 29 7.15383 29 7.68427V21.6843C29 22.2147 28.7893 22.7234 28.4142 23.0985C28.0391 23.4736 27.5304 23.6843 27 23.6843H24C23.4477 23.6843 23 23.2365 23 22.6843C23 22.132 23.4477 21.6843 24 21.6843H27V7.68427L9 7.68427L9 10.6843C9 11.2365 8.55228 11.6843 8 11.6843C7.44772 11.6843 7 11.2365 7 10.6843V7.68427C7 7.15383 7.21071 6.64512 7.58579 6.27005Z" fill="black"/>
<path id="Vector (Stroke)_3" fill-rule="evenodd" clip-rule="evenodd" d="M3 14.6843C3 14.132 3.44772 13.6843 4 13.6843H24C24.5523 13.6843 25 14.132 25 14.6843C25 15.2365 24.5523 15.6843 24 15.6843H4C3.44772 15.6843 3 15.2365 3 14.6843Z" fill="black"/>
</g>
</svg>
